<?xml version="1.0" encoding="UTF-8"?>
<svg version="1.1" viewBox="0 0 45 45" xmlns="http://www.w3.org/2000/svg" xmlns:cc="http://creativecommons.org/ns#" xmlns:dc="http://purl.org/dc/elements/1.1/" xmlns:rdf="http://www.w3.org/1999/02/22-rdf-syntax-ns#">
<metadata>
<rdf:RDF>
<cc:Work rdf:about="">
<dc:format>image/svg+xml</dc:format>
<dc:type rdf:resource="http://purl.org/dc/dcmitype/StillImage"/>
<dc:title/>
</cc:Work>
</rdf:RDF>
</metadata>
<g transform="translate(37.787 4.3601)" fill="none" fill-rule="evenodd" stroke="#000" stroke-linecap="round" stroke-linejoin="round" stroke-width="1.5">
<path d="m-21.499 5.5696c-0.73-0.994-0.5-2-0.5-3 1-1 3 2.5 3 2.5" fill="#fff" stroke="#000"/>
</g>
<g fill-rule="evenodd" stroke="#000" stroke-linecap="round" stroke-linejoin="round" stroke-width="1.5">
<path d="m22 10c10.5 1 16.5 8 16 29h-23c0-9 10-6.5 8-21" fill="#fff"/>
<path d="m24 18c0.38 2.91-5.55 7.37-8 9-3 2-2.82 4.34-5 4-1.042-0.94 1.41-3.04 0-3-1 0 0.19 1.23-1 2-1 0-4.003 1-4-4-0.77675-1.0696-0.92778-1.9701 0.10896-4.0651 0.59357-1.1995 1.7227-0.98924 2.2696-1.8046 0.94199-1.4042 2.1214-3.5678 2.6839-4.5366s0.9375-1.5938 0.9375-1.5938c2.9916-4.4626 9.2915-6.8227 11.537-6.8446 0.65535 0.025892-0.10443 0.32278-0.45843 1.0793-0.354 0.75647 0.37097 1.9207 0.37097 1.9207" fill="#fff"/>
<path d="m8.6715 23.791a0.5 0.5 0 1 1-1 0 0.5 0.5 0 1 1 1 0z"/>
<path transform="matrix(.866 .5 -.5 .866 9.693 -5.173)" d="m15 15.5a0.5 1.5 0 1 1-1 0 0.5 1.5 0 1 1 1 0z"/>
</g>
</svg>
