<?xml version="1.0" encoding="UTF-8"?>
<svg version="1.0" viewBox="0 0 45 45" xmlns="http://www.w3.org/2000/svg" xmlns:cc="http://creativecommons.org/ns#" xmlns:dc="http://purl.org/dc/elements/1.1/" xmlns:rdf="http://www.w3.org/1999/02/22-rdf-syntax-ns#">
<metadata>
<rdf:RDF>
<cc:Work rdf:about="">
<dc:format>image/svg+xml</dc:format>
<dc:type rdf:resource="http://purl.org/dc/dcmitype/StillImage"/>
</cc:Work>
</rdf:RDF>
</metadata>
<g stroke-linejoin="round">
<circle transform="scale(-1,1)" cx="-39" cy="12.247" r="2" stroke="#000" stroke-linecap="round"/>
<circle transform="scale(-1,1)" cx="-22.5" cy="7.747" r="2" stroke="#000" stroke-linecap="round"/>
<circle transform="scale(-1,1)" cx="-6" cy="12.247" r="2" stroke="#000" stroke-linecap="round"/>
<circle transform="scale(-1,1)" cx="-31" cy="8.747" r="2" stroke="#000" stroke-linecap="round"/>
<circle transform="scale(-1,1)" cx="-14" cy="9.247" r="2" stroke="#000" stroke-linecap="round"/>
<path d="m36 26.247c-8.5-1.5-21-1.5-27 0l-2-12 7 11v-14l5.5 13.5 3-15 3 15 5.5-14v14.5l7-11z" fill-rule="evenodd" stroke="#000" stroke-width="1px"/>
<path d="m36 26.247c0 2-1.5 2-2.5 4-1 1.5-1 1-0.5 3.5 1.5 1 1.5 2.5 1.5 2.5 1.5 1.5-0.5 2.5-0.5 2.5-6.5 1-16.5 1-23 0 0 0-1.5-1 0-2.5 0 0-0.5-1.5 1-2.5 0.5-2.5 0.5-2-0.5-3.5-1-2-2.5-2-2.5-4 8.5-1.5 18.5-1.5 27 0z" fill-rule="evenodd" stroke="#000" stroke-width="1px"/>
<path d="m33.5 30.247c-3.5-1-18.5-1-22 0" fill="none" stroke="#fff" stroke-linecap="round" stroke-width="1px"/>
<path d="m33 33.747c-6-1-15-1-21 0" fill="none" stroke="#fff" stroke-linecap="round" stroke-width="1px"/>
<path d="m9.7298 25.781c8.0758-1.274 17.003-1.0136 25.468 0" fill="none" stroke="#fff" stroke-linecap="round" stroke-linejoin="round" stroke-width="1.4596"/>
</g>
</svg>
